<svg xmlns="http://www.w3.org/2000/svg" width="24" height="23.998" viewBox="0 0 24 23.998">
  <g id="chrome" transform="translate(0 -0.019)">
    <path id="Path_214" data-name="Path 214" d="M61.818,4.34A11.668,11.668,0,0,1,81.465,6.792c-2.7,0-6.934,0-9.226,0-1.662,0-2.736-.039-3.9.6a5.7,5.7,0,0,0-2.757,3.767Z" transform="translate(-58.823 0)" fill="#f44336"/>
    <path id="Path_215" data-name="Path 215" d="M170.842,175.024a4.122,4.122,0,1,0,4.122-4.124A4.127,4.127,0,0,0,170.842,175.024Z" transform="translate(-162.967 -163.004)" fill="#2196f3"/>
    <path id="Path_216" data-name="Path 216" d="M14,128.413a5.554,5.554,0,0,1-6.5-2.635c-1.132-1.953-4.124-7.164-5.482-9.534A12.418,12.418,0,0,0,10,135.185Z" transform="translate(0 -111.398)" fill="#4caf50"/>
    <path id="Path_217" data-name="Path 217" d="M244.563,170.838a5.646,5.646,0,0,1,1.042,6.943c-.983,1.7-4.122,6.993-5.643,9.557a12.411,12.411,0,0,0,12.465-16.5Z" transform="translate(-229.14 -163.345)" fill="#ffc107"/>
  </g>
</svg>
