<svg xmlns="http://www.w3.org/2000/svg" xmlns:xlink="http://www.w3.org/1999/xlink" width="24.001" height="24" viewBox="0 0 24.001 24">
  <defs>
    <linearGradient id="linear-gradient" x1="-0.185" y1="-0.185" x2="-0.182" y2="-0.185" gradientUnits="objectBoundingBox">
      <stop offset="0" stop-color="#ff780b"/>
      <stop offset="1" stop-color="#ffa322"/>
    </linearGradient>
  </defs>
  <g id="UC-Browser-01" transform="translate(-67.5 -67.5)">
    <path id="Path_298" data-name="Path 298" d="M86.232,91.5H72.768A5.268,5.268,0,0,1,67.5,86.232V72.768A5.268,5.268,0,0,1,72.768,67.5H86.233A5.268,5.268,0,0,1,91.5,72.768V86.233A5.268,5.268,0,0,1,86.232,91.5Z" fill="url(#linear-gradient)"/>
    <path id="Path_299" data-name="Path 299" d="M122.625,135.924l-.088-.026a4.572,4.572,0,0,1-2.969-5.688,5.036,5.036,0,0,1,2.111-2.722c.668-.456,1.362-.875,2.03-1.33a4.987,4.987,0,0,0,2.038-2.615,3.612,3.612,0,0,0-.683-3.741,4.209,4.209,0,0,0-3.87-1.4,6.077,6.077,0,0,0-4.464,2.911c-.043.066-.075.139-.112.21a3.257,3.257,0,0,1,1.4-.527,2,2,0,0,1,2.205,1.539,2.51,2.51,0,0,1-.5,2.05c-.481.64-1.011,1.245-1.535,1.853a5.939,5.939,0,0,0-1.57,4.862,5.14,5.14,0,0,0,2.323,3.674,6.342,6.342,0,0,0,3.682.954" transform="translate(-45.836 -47.51)" fill="#fff"/>
    <path id="Path_300" data-name="Path 300" d="M258.89,169.427a7.306,7.306,0,0,1,2.088.326,10.966,10.966,0,0,1,2.753,1.238,3.662,3.662,0,0,0,2.626.5,2.539,2.539,0,0,0,.536-.16.256.256,0,0,0,.132-.182,4.547,4.547,0,0,0,0-.676,4.334,4.334,0,0,0-.742-2.1,4.035,4.035,0,0,0-2.13-1.543.308.308,0,0,1-.233-.263,4.348,4.348,0,0,0-.164-.577,2.417,2.417,0,0,0-.608-.969c-.055.068-.1.12-.143.177a3.371,3.371,0,0,0-.577,1.978.5.5,0,0,1-.222.461c-.453.3-.89.627-1.368.879-.631.335-1.295.612-1.944.912" transform="translate(-178.805 -91.108)" fill="#fff"/>
    <path id="Path_301" data-name="Path 301" d="M187.509,269.107a5.489,5.489,0,0,0,.318-1.863,4.662,4.662,0,0,0-4.788-4.756,3.4,3.4,0,0,0-2.424.979,3.318,3.318,0,0,0-.775,1.168,3.719,3.719,0,0,1,5.713.375,3.592,3.592,0,0,1,.436,3.26,3.766,3.766,0,0,1-2.373,2.315c2.1-.006,4.183-.034,6.319-.228a2.545,2.545,0,0,0-2.425-1.25" transform="translate(-104.953 -182.167)" fill="#fff"/>
    <path id="Path_302" data-name="Path 302" d="M233.971,247.273a1.014,1.014,0,0,0-.5-.827,2.419,2.419,0,0,0-1.163-.33,5.273,5.273,0,0,1-2.111-.606c-.56-.31-1.1-.665-1.672-.946a8.179,8.179,0,0,0-2.876-.75,4.957,4.957,0,0,0-2.011.206,2.235,2.235,0,0,0-.223.1.574.574,0,0,0,.228.032,5.879,5.879,0,0,1,2.247.364,6.391,6.391,0,0,1,3.363,2.994.4.4,0,0,0,.3.243,6.951,6.951,0,0,0,1.057.06,3.528,3.528,0,0,0,1.262-.421,2.55,2.55,0,0,1,1.509-.247c.183.028.364.077.583.126" transform="translate(-145.668 -164.698)" fill="#fff"/>
    <path id="Path_303" data-name="Path 303" d="M122.615,135.9a6.33,6.33,0,0,1-3.682-.956,5.14,5.14,0,0,1-2.323-3.674,5.939,5.939,0,0,1,1.57-4.862c.523-.607,1.053-1.212,1.535-1.853a2.509,2.509,0,0,0,.5-2.05,2,2,0,0,0-2.205-1.539,3.274,3.274,0,0,0-1.4.527c.037-.07.07-.143.112-.21a6.076,6.076,0,0,1,4.463-2.911,4.208,4.208,0,0,1,3.87,1.4,3.612,3.612,0,0,1,.683,3.741,4.98,4.98,0,0,1-2.038,2.615c-.668.456-1.362.875-2.03,1.33a5.044,5.044,0,0,0-2.111,2.722,4.571,4.571,0,0,0,2.969,5.688c.031.011.06.02.089.028" transform="translate(-45.826 -47.482)" fill="#fff"/>
    <path id="Path_304" data-name="Path 304" d="M258.89,169.436c.648-.3,1.311-.576,1.943-.911.477-.254.915-.582,1.368-.879a.5.5,0,0,0,.222-.461,3.367,3.367,0,0,1,.577-1.978c.04-.057.087-.108.143-.177a2.412,2.412,0,0,1,.608.969,4.308,4.308,0,0,1,.164.577.307.307,0,0,0,.233.263,4.035,4.035,0,0,1,2.13,1.543,4.332,4.332,0,0,1,.742,2.1,4.462,4.462,0,0,1,0,.676.252.252,0,0,1-.132.182,2.574,2.574,0,0,1-.536.16,3.666,3.666,0,0,1-2.626-.5,10.931,10.931,0,0,0-2.753-1.238,7.242,7.242,0,0,0-2.087-.327" transform="translate(-178.805 -91.117)" fill="#fff"/>
    <path id="Path_305" data-name="Path 305" d="M187.538,269.116a2.545,2.545,0,0,1,2.427,1.251c-2.136.193-4.223.222-6.319.228a3.769,3.769,0,0,0,2.373-2.315,3.594,3.594,0,0,0-.436-3.26,3.72,3.72,0,0,0-5.713-.375,3.312,3.312,0,0,1,.775-1.168,3.407,3.407,0,0,1,2.424-.979,4.662,4.662,0,0,1,4.788,4.756,5.518,5.518,0,0,1-.319,1.863" transform="translate(-104.981 -182.176)" fill="#fff"/>
    <path id="Path_306" data-name="Path 306" d="M233.953,247.239c-.219-.049-.4-.1-.584-.129a2.557,2.557,0,0,0-1.509.247,3.528,3.528,0,0,1-1.262.421,7.124,7.124,0,0,1-1.057-.06.4.4,0,0,1-.3-.243,6.4,6.4,0,0,0-3.363-2.994,5.9,5.9,0,0,0-2.247-.364.576.576,0,0,1-.228-.032,2.309,2.309,0,0,1,.223-.1,4.967,4.967,0,0,1,2.011-.206,8.208,8.208,0,0,1,2.876.75c.575.28,1.112.635,1.672.946a5.245,5.245,0,0,0,2.111.606,2.412,2.412,0,0,1,1.163.33,1.016,1.016,0,0,1,.5.83" transform="translate(-145.649 -164.665)" fill="#fff"/>
    <path id="Path_307" data-name="Path 307" d="M183.886,293.9a2.555,2.555,0,1,0,2.556,2.555A2.561,2.561,0,0,0,183.886,293.9Zm-.017,3.733a1.178,1.178,0,1,1,1.2-1.165A1.166,1.166,0,0,1,183.869,297.633Z" transform="translate(-106.336 -211.513)" fill="#fff"/>
  </g>
</svg>
