<svg id="edge" xmlns="http://www.w3.org/2000/svg" width="24" height="24" viewBox="0 0 24 24">
  <circle id="Ellipse_13" data-name="Ellipse 13" cx="12" cy="12" r="12" fill="#d2f0ff"/>
  <path id="Path_218" data-name="Path 218" d="M103.711,77.918a7.491,7.491,0,0,0-7.486,7.23L98.1,87.028a5.416,5.416,0,0,0-.036.548h0a6.511,6.511,0,0,0,1.767,4.894h0l5.663,5.663a12,12,0,0,0,10.2-11.329l-7.05-7.05-.012.012A7.464,7.464,0,0,0,103.711,77.918Z" transform="translate(-91.714 -74.266)" fill="#73c8f0"/>
  <path id="Path_219" data-name="Path 219" d="M111.2,85.411a7.492,7.492,0,0,0-14.979-.262,12.013,12.013,0,0,1,3-2.861,7.763,7.763,0,0,1,4.493-1.254,2.811,2.811,0,0,1,2.771,2.788v.8h-5.548a4.327,4.327,0,0,1,.966-2.53,8.7,8.7,0,0,0-2.525,1.974,5.129,5.129,0,0,0-1.073,2,5.38,5.38,0,0,0-.236,1.51h0a6.361,6.361,0,0,0,3.062,5.912c3.816,2.244,8.647-.244,8.647-.244v-3.4c-2.4,1.156-5.975,1.668-7.748.222a3.254,3.254,0,0,1-1.126-2.489h10.3V85.411Z" transform="translate(-91.714 -74.266)" fill="#2896ff"/>
</svg>
