<svg id="opera" xmlns="http://www.w3.org/2000/svg" width="24" height="24" viewBox="0 0 24 24">
  <path id="Path_220" data-name="Path 220" d="M171.744,37.476a5.381,5.381,0,0,1,4.081-2.083c3.5,0,6.332,3.959,6.332,8.844s-2.835,8.846-6.332,8.846A5.386,5.386,0,0,1,171.744,51a9.032,9.032,0,0,0,7.146,3.652,8.674,8.674,0,0,0,4.814-1.47,11.987,11.987,0,0,0,0-17.888,8.674,8.674,0,0,0-4.814-1.47,9.026,9.026,0,0,0-7.146,3.652" transform="translate(-163.709 -32.237)" fill="#d32f2f"/>
  <path id="Path_221" data-name="Path 221" d="M12,0a12,12,0,0,0-.571,23.987Q11.71,24,12,24a11.949,11.949,0,0,0,7.995-3.054,8.656,8.656,0,0,1-4.808,1.47,9.017,9.017,0,0,1-7.137-3.653A10.441,10.441,0,0,1,5.8,12.284v-.566a10.462,10.462,0,0,1,2.244-6.48,9.017,9.017,0,0,1,7.137-3.653,8.656,8.656,0,0,1,4.808,1.47A11.947,11.947,0,0,0,12.043,0Z" fill="#f44336"/>
</svg>
